<svg width="1377" height="236" viewBox="0 0 1377 236" fill="none" xmlns="http://www.w3.org/2000/svg">
<path d="M564.91 6.80005H479.78C472.7 6.80005 470.8 8.53005 470.8 15.43V34.6H501.71V130.09H523.64C531.07 130.09 532.62 128.54 532.62 121.11V34.6H555.93C563.01 34.6 564.91 32.8701 564.91 25.7901V6.80005V6.80005Z" fill="#E30613"/>
<path d="M604.11 34.78C574.93 34.78 564.57 47.9 564.57 83.13C564.57 115.59 573.38 130.1 605.67 130.1H641.07V112.49C641.07 105.41 639.17 103.86 632.09 103.86H608.78C599.28 103.86 595.31 102.82 594.79 94.88H635.02C642.1 94.88 644 93.15 644 86.25V71.4C644 41.86 627.59 34.78 604.11 34.78ZM614.47 74.32H593.92C594.44 62.58 595.65 61.02 604.11 61.02C612.57 61.02 614.47 62.4 614.47 71.38V74.32V74.32Z" fill="#E30613"/>
<path d="M657.81 83.13C657.81 118.36 668.17 130.1 709.09 130.1H726.7V112.49C726.7 105.41 724.97 103.68 717.89 103.68H709.08C690.09 103.68 688.53 102.3 688.53 83.13C688.53 64.14 690.08 62.58 709.08 62.58H717.89C724.97 62.58 726.7 60.85 726.7 53.77V36.16H709.09C668.17 36.16 657.81 47.9 657.81 83.13Z" fill="#E30613"/>
<path d="M799.4 34.6001C783.51 34.6001 780.23 35.9801 775.57 45.1301L772.98 50.4801V9.74006C772.98 2.66006 771.25 0.930054 764.17 0.930054H742.24V121.29C742.24 128.37 743.97 130.1 751.05 130.1H772.98V74.3201C772.98 63.9601 775.92 61.0201 786.28 61.0201C796.47 61.0201 798.02 62.4001 798.02 72.7601V121.28C798.02 128.36 799.75 130.09 806.83 130.09H828.76V65.5101C828.76 35.9901 817.02 34.6001 799.4 34.6001Z" fill="#E30613"/>
<path d="M903.35 34.6001C885.91 34.6001 882.63 35.9801 877.97 45.1301L875.38 50.4801L874 44.9601C872.1 38.0501 870.72 36.1501 865.19 36.1501H846.02V121.28C846.02 128.36 847.75 130.09 854.83 130.09H876.93V74.3101C876.93 63.9501 879.87 61.0101 890.05 61.0101C900.41 61.0101 901.79 62.3901 901.79 72.7501V121.27C901.79 128.35 903.69 130.08 910.6 130.08H932.7V65.5001C932.71 35.9901 920.97 34.6001 903.35 34.6001Z" fill="#E30613"/>
<path d="M990.72 34.78C958.26 34.78 948.24 47.9 948.24 83.13C948.24 118.53 958.25 131.48 990.72 131.48C1023.01 131.48 1033.37 118.53 1033.37 83.13C1033.38 47.9 1023.02 34.78 990.72 34.78ZM990.72 105.23C980.36 105.23 978.98 103.85 978.98 83.13C978.98 62.58 980.36 61.03 990.72 61.03C1001.08 61.03 1002.46 62.58 1002.46 83.13C1002.47 103.85 1001.09 105.23 990.72 105.23Z" fill="#E30613"/>
<path d="M1129.21 66.03C1138.02 61.37 1143.02 53.2501 1143.02 40.6501C1143.02 13.1901 1130.24 6.80005 1103.48 6.80005H1059.27C1052.36 6.80005 1050.64 8.53005 1050.64 15.43V130.1H1103.48C1129.73 130.1 1145.96 124.06 1145.96 94.87C1145.96 80.54 1140.09 71.39 1129.21 66.03ZM1081.55 34.78H1102.1C1109.52 34.78 1112.12 35.9901 1112.12 44.9701C1112.12 53.7801 1109.53 55.3301 1102.1 55.3301H1081.55V34.78ZM1103.48 102.29H1081.55V80.19H1103.48C1112.46 80.19 1115.22 81.5701 1115.22 91.0701C1115.22 100.91 1112.46 102.29 1103.48 102.29Z" fill="#E30613"/>
<path d="M1209.68 5.25C1176.35 5.25 1159.78 14.57 1159.78 61.2V75.88C1159.78 122.33 1176.36 131.65 1209.68 131.65C1243.01 131.65 1259.58 122.32 1259.58 75.88V61.2C1259.58 14.57 1243 5.25 1209.68 5.25ZM1228.84 75.88C1228.84 102.3 1225.91 103.68 1209.67 103.68C1193.61 103.68 1190.67 102.3 1190.67 75.88V61.2C1190.67 34.44 1193.61 33.23 1209.67 33.23C1225.9 33.23 1228.84 34.44 1228.84 61.2V75.88Z" fill="#E30613"/>
<path d="M1346.78 66.21L1371.65 31.5C1373.03 29.43 1374.07 27.18 1374.07 24.42V6.80005H1356.46C1352.83 6.80005 1349.21 8.53005 1347.31 11.12L1324.17 46.8601L1301.03 11.12C1299.13 8.53005 1295.5 6.80005 1291.88 6.80005H1274.27V24.41C1274.27 27.17 1275.31 29.42 1276.69 31.49L1301.55 66.2L1273.58 105.4C1272.37 107.47 1271.34 109.72 1271.34 112.48V130.09H1288.95C1292.92 130.09 1296.03 128.54 1298.1 125.6L1324.17 85.8801L1350.24 125.6C1352.31 128.53 1355.42 130.09 1359.39 130.09H1377V112.48C1377 109.72 1375.96 107.47 1374.75 105.4L1346.78 66.21Z" fill="#E30613"/>
<path d="M553.39 234.07H541.06C535.12 234.07 533.41 232.81 532.5 229.27L529.87 221.05H505.21L502.58 229.27C501.44 232.81 499.95 234.07 494.25 234.07H482.26C478.72 234.07 478.04 232.47 479.18 229.39L505.44 157C506.58 153.69 508.07 153 511.38 153H524.4C527.71 153 529.2 153.8 530.34 156.77L556.72 229.39C557.84 232.47 556.82 234.07 553.39 234.07ZM518 173.79H516.86C516.86 173.79 516.97 182.01 514.69 189.66L510.47 203.13H524.74L520.52 189.77C518.23 182.01 518 173.79 518 173.79Z" fill="black"/>
<path d="M626.46 174.59C626.46 182.24 624.06 187.38 618.24 191.37V191.83C625.55 195.03 629.77 201.54 629.77 211.47C629.77 226.2 617.78 234.08 601.68 234.08H567.77C564.12 234.08 562.86 232.82 562.86 229.28V157.8C562.86 154.15 564.12 152.89 567.77 152.89H601.22C616.98 152.89 626.46 160.66 626.46 174.59ZM596.55 171.28H585.48V183.84H596.55C601.12 183.84 603.51 182.13 603.51 177.67C603.51 173.22 601.11 171.28 596.55 171.28ZM598.72 202.22H585.48V215.58H598.72C603.63 215.58 606.03 213.64 606.03 208.84C606.02 204.27 603.63 202.22 598.72 202.22Z" fill="black"/>
<path d="M698.5 157.8V168.08C698.5 171.73 697.24 172.99 693.59 172.99H676.69V229.28C676.69 232.82 675.43 234.08 671.78 234.08H658.88C655.23 234.08 654.08 232.82 654.08 229.28V172.99H637.07C633.42 172.99 632.28 171.73 632.28 168.08V157.8C632.28 154.26 633.42 153 637.07 153H693.59C697.25 153.01 698.5 154.26 698.5 157.8Z" fill="black"/>
<path d="M737.67 151.29C760.16 151.29 772.72 163.51 772.72 183.26V203.81C772.72 223.56 760.16 235.78 737.67 235.78C715.06 235.78 702.5 223.56 702.5 203.81V183.26C702.5 163.51 715.06 151.29 737.67 151.29ZM737.67 171.28C729.68 171.28 725.11 175.05 725.11 182.24V204.85C725.11 212.04 729.68 215.81 737.67 215.81C745.55 215.81 750.11 212.04 750.11 204.85V182.24C750.11 175.04 745.54 171.28 737.67 171.28Z" fill="black"/>
<path d="M836.2 191.6C845.68 195.94 847.85 202.79 847.85 211.01C847.85 226.88 837.69 235.79 815.54 235.79C795.67 235.79 783.8 228.6 779 215.81C777.86 212.5 778.66 210.79 782.08 209.64L793.27 205.64C796.7 204.38 798.18 205.18 799.44 208.72C801.38 213.63 805.95 216.14 813.71 216.14C821.59 216.14 824.1 213.97 824.1 209.4C824.1 204.6 821.93 202.66 817.02 202.66H806.17C802.52 202.66 801.26 201.4 801.26 197.86V188.38C801.26 184.73 802.52 183.47 806.17 183.47H815.19C819.87 183.47 822.15 181.76 822.15 177.19C822.15 172.85 819.18 170.91 813.24 170.91C805.82 170.91 801.71 173.19 799.77 178.33C798.4 181.87 797.03 182.55 793.6 181.41L782.3 177.41C778.99 176.27 778.08 174.56 779.33 171.24C784.01 158.45 795.54 151.26 815.41 151.26C834.82 151.26 845.1 159.25 845.1 175.01C845.1 183.15 842.25 188.29 836.2 191.6Z" fill="black"/>
<path d="M923.65 234.07H911.32C905.38 234.07 903.67 232.81 902.76 229.27L900.13 221.05H875.47L872.84 229.27C871.7 232.81 870.21 234.07 864.51 234.07H852.52C848.98 234.07 848.3 232.47 849.44 229.39L875.7 157C876.84 153.69 878.33 153 881.64 153H894.66C897.97 153 899.46 153.8 900.6 156.77L926.97 229.39C928.11 232.47 927.08 234.07 923.65 234.07ZM888.26 173.79H887.12C887.12 173.79 887.23 182.01 884.95 189.66L880.73 203.13H895L890.78 189.77C888.49 182.01 888.26 173.79 888.26 173.79Z" fill="black"/>
<path d="M999.92 157.8V229.27C999.92 232.81 998.66 234.07 995.12 234.07H982.1C978.56 234.07 977.31 232.81 977.31 229.27V172.98H955.73V229.27C955.73 232.81 954.59 234.07 950.93 234.07H938.03C934.38 234.07 933.12 232.81 933.12 229.27V157.8C933.12 154.26 934.38 153 938.03 153H995.12C998.66 153.01 999.92 154.26 999.92 157.8Z" fill="black"/>
<path d="M1074.93 157.8V229.27C1074.93 232.81 1073.79 234.07 1070.13 234.07H1057.23C1053.58 234.07 1052.32 232.81 1052.32 229.27V207.01C1050.04 207.35 1046.04 207.81 1040.67 207.81C1018.06 207.81 1008.81 196.73 1008.81 176.07V157.8C1008.81 154.26 1009.95 153 1013.61 153H1026.51C1030.16 153 1031.42 154.26 1031.42 157.8V176.07C1031.42 183.15 1035.64 186.57 1044.09 186.57C1047.97 186.57 1050.83 186.11 1052.31 185.77V157.8C1052.31 154.26 1053.57 153 1057.22 153H1070.12C1073.79 153.01 1074.93 154.26 1074.93 157.8Z" fill="black"/>
<path d="M1155.54 234.07H1143.21C1137.27 234.07 1135.56 232.81 1134.65 229.27L1132.02 221.05H1107.36L1104.73 229.27C1103.59 232.81 1102.1 234.07 1096.4 234.07H1084.41C1080.87 234.07 1080.19 232.47 1081.33 229.39L1107.59 157C1108.73 153.69 1110.22 153 1113.53 153H1126.55C1129.86 153 1131.35 153.8 1132.49 156.77L1158.87 229.39C1159.99 232.47 1158.96 234.07 1155.54 234.07ZM1120.14 173.79H1119C1119 173.79 1119.11 182.01 1116.83 189.66L1112.61 203.13H1126.88L1122.66 189.77C1120.37 182.01 1120.14 173.79 1120.14 173.79Z" fill="black"/>
<path d="M1195.61 151.29C1213.19 151.29 1224.15 158.48 1228.95 171.27C1230.09 174.58 1229.29 176.29 1225.87 177.44L1213.65 181.78C1210.11 182.81 1208.74 182.24 1207.48 178.7C1205.42 173.56 1202 171.28 1195.61 171.28C1186.59 171.28 1183.05 175.16 1183.05 183.15V203.93C1183.05 211.92 1186.59 215.8 1195.61 215.8C1202 215.8 1205.66 213.29 1207.48 208.38C1208.85 204.84 1210.22 204.04 1213.65 205.3L1225.87 209.64C1229.29 210.78 1230.09 212.49 1228.95 215.81C1224.15 228.6 1213.19 235.79 1195.61 235.79C1173.12 235.79 1160.44 223.57 1160.44 203.82V183.27C1160.45 163.51 1173.12 151.29 1195.61 151.29Z" fill="black"/>
<path d="M1298.59 157.8V168.08C1298.59 171.73 1297.33 172.99 1293.68 172.99H1276.78V229.28C1276.78 232.82 1275.52 234.08 1271.87 234.08H1258.97C1255.32 234.08 1254.17 232.82 1254.17 229.28V172.99H1237.16C1233.51 172.99 1232.37 171.73 1232.37 168.08V157.8C1232.37 154.26 1233.51 153 1237.16 153H1293.68C1297.34 153.01 1298.59 154.26 1298.59 157.8Z" fill="black"/>
<path d="M1374.63 157.8V229.27C1374.63 232.81 1373.37 234.07 1369.72 234.07H1356.93C1353.28 234.07 1352.02 232.81 1352.02 229.16V209.75C1352.02 196.96 1353.28 193.88 1356.36 181.43H1355.45C1351.23 193.19 1349.63 196.62 1344.72 204.95L1328.96 231.78C1328.05 233.49 1326.79 234.06 1324.28 234.06H1310.46C1306.81 234.06 1305.55 232.8 1305.55 229.26V157.8C1305.55 154.26 1306.81 153 1310.46 153H1323.36C1327.01 153 1328.16 154.26 1328.16 157.8V177.32C1328.16 189.76 1327.59 193.42 1323.94 205.52H1324.74C1329.31 193.99 1330.79 190.11 1335.7 181.77L1351.23 155.17C1352.26 153.57 1353.4 152.89 1356.03 152.89H1369.73C1373.38 152.89 1374.63 154.15 1374.63 157.8Z" fill="black"/>
<path d="M107.63 50.22C65.95 50.22 45.2201 50.22 3.54005 50.22C3.21005 50.22 2.88005 50.18 2.55005 50.23C1.39005 50.39 0.690048 52.02 1.13005 53.78C1.39005 54.8 1.76005 55.96 2.29005 56.56C4.97005 59.57 7.57005 62.96 10.49 65.22C18.93 71.77 28.0901 73.63 37.2901 74.39C44.0901 74.95 50.92 74.86 57.74 74.88C80.17 74.93 81.64 74.9 104.07 74.9C105.31 66.7 106.42 58.44 107.63 50.22Z" fill="black"/>
<path d="M132.24 70.46C134.2 66.79 136.55 63.31 138.3 59.54C140.66 54.46 138.88 51.33 133.45 50.31C132.63 50.16 131.78 50.22 130.94 50.22C122.83 50.22 114.72 50.22 106.62 50.22C104.65 58.45 102.83 66.71 100.85 74.93C100.96 74.93 101.06 74.93 101.17 74.93C103.22 75.03 104.4 76.14 104.48 78.22C104.53 79.51 104.52 80.82 104.33 82.09C103.35 88.84 101.82 95.54 101.38 102.32C100.43 116.74 101.63 131.03 105.96 144.92C108.94 154.48 112.63 163.66 120.71 170.32C124.48 173.43 128.66 175.19 133.87 175.33C133.61 174.65 133.49 174.29 133.34 173.96C126.73 159.63 123.22 144.49 121.93 128.86C121.16 119.52 121.45 110.15 122.7 100.81C124.13 90.12 127.17 79.97 132.24 70.46Z" fill="black"/>
<path d="M45.0502 104.93C53.3402 105.38 61.6402 105.11 69.9402 105.14C70.8802 105.14 71.8301 105.14 72.7701 105.14C72.7801 105.03 72.8002 104.93 72.8102 104.82C72.5902 104.65 72.3802 104.45 72.1502 104.31C69.1102 102.3 66.0202 100.5 63.0402 98.23C61.2202 96.84 59.5302 94.84 57.8602 92.92C55.5402 90.26 54.3402 86.5 54.7602 81.48C54.3802 81.44 54.1602 81.4 53.9502 81.4C39.3302 81.4 24.7102 81.4 10.0902 81.4C9.83016 81.4 9.56016 81.38 9.30016 81.47C8.09016 81.9 7.56016 83.44 8.14016 85.32C8.56016 86.68 9.17016 87.96 9.86016 88.96C15.2902 96.84 21.7902 100.5 28.5902 102.32C34.0402 103.77 39.5602 104.63 45.0502 104.93Z" fill="#ED7004"/>
<path d="M77.38 135.09C78.62 135.09 79.87 135.09 81.11 135.09C81.02 134.66 80.91 134.58 80.81 134.52C80.52 134.36 80.23 134.22 79.94 134.06C75.38 131.48 70.93 128.48 66.98 123.59C64.68 120.74 62.98 117.39 63.54 111.72C63.08 111.68 62.78 111.64 62.48 111.64C52.34 111.64 42.2 111.64 32.06 111.64C27.76 111.64 23.46 111.59 19.16 111.7C18.56 111.72 17.69 112.3 17.44 113.1C17.18 113.91 17.46 115.34 17.65 116.42C17.77 117.09 18.11 117.77 18.46 118.18C20.7 120.79 22.85 123.77 25.26 125.79C33.39 132.61 42.18 134.48 51.05 134.91C59.82 135.33 68.61 135.06 77.38 135.09Z" fill="#ED7004"/>
<path d="M85.87 152.42C83.99 149.86 82.86 146.55 83.44 141.88C82.9 141.88 82.4699 141.88 82.0299 141.88C67.7999 141.88 53.5699 141.86 39.3399 141.94C38.6499 141.94 37.4899 142.54 37.3699 143.26C37.1699 144.47 37.5799 146.05 37.8599 147.4C37.9799 147.98 38.3699 148.42 38.6799 148.86C41.3599 152.73 44.33 155.74 47.58 157.89C55.52 163.14 63.82 164.91 72.22 165.18C81.48 165.48 90.7499 165.25 100.02 165.25C100.42 165.25 100.83 165.25 101.23 165.25C100.87 164.75 100.51 164.54 100.15 164.35C95.05 161.62 90.12 158.22 85.87 152.42Z" fill="#ED7004"/>
<path d="M93.4101 105.14C93.8801 105.15 94.3501 105.14 94.7301 105.14C95.3201 97.1299 95.9001 89.3999 96.4801 81.4599C96.1801 81.4299 95.9601 81.3999 95.7501 81.3999C76.5601 81.3999 78.3201 81.3799 59.1201 81.4599C58.4501 81.4599 57.5101 82.1599 57.2001 83.0599C56.9301 83.8399 57.2801 85.4199 57.5301 86.5399C57.6901 87.2699 58.0901 87.9299 58.4801 88.3999C60.2701 90.5599 62.0001 92.9299 63.9201 94.6799C71.7801 101.86 80.3901 103.93 89.0801 104.61C97.4901 105.27 84.9801 105 93.4101 105.14Z" fill="#E30613"/>
<path d="M98.9601 134.91C104.48 135.34 89.0701 135.05 94.6001 135.08C95.0701 135.08 95.5401 135.08 95.9001 135.08C95.4801 127.16 95.0801 119.54 94.6601 111.63C94.3201 111.63 93.9701 111.63 93.6201 111.63C78.0301 111.63 83.4001 111.63 67.8201 111.63C67.6401 111.63 67.4701 111.61 67.2901 111.64C65.8901 111.83 65.2701 113.54 65.8901 115.74C66.1501 116.67 66.5001 117.71 66.9801 118.26C69.3701 121.03 71.6901 124.13 74.2801 126.23C82.0801 132.57 90.4901 134.25 98.9601 134.91Z" fill="#E30613"/>
<path d="M87.33 141.89C85.74 141.89 85.08 143.76 85.89 146.14C86.32 147.41 86.97 148.54 87.63 149.5C91.79 155.48 96.66 159.02 101.84 161.02C106.12 162.67 89.53 163.8 93.89 164.65C96.6 165.18 99.37 164.75 101.8 164.75C100.18 157.51 98.46 149.82 96.69 141.89C86.65 141.88 97.47 141.87 87.33 141.89Z" fill="#E30613"/>
<path d="M365.83 50.22C407.51 50.22 428.24 50.22 469.92 50.22C470.25 50.22 470.58 50.18 470.91 50.23C472.07 50.39 472.77 52.02 472.33 53.78C472.07 54.8 471.7 55.96 471.17 56.56C468.49 59.57 465.89 62.96 462.97 65.22C454.53 71.77 445.37 73.63 436.17 74.39C429.37 74.95 422.54 74.86 415.72 74.88C393.29 74.93 391.82 74.9 369.39 74.9C368.15 66.7 367.03 58.44 365.83 50.22Z" fill="black"/>
<path d="M341.21 70.46C339.25 66.79 336.9 63.31 335.15 59.54C332.79 54.46 334.57 51.33 340 50.31C340.82 50.16 341.67 50.22 342.51 50.22C350.62 50.22 358.73 50.22 366.83 50.22C368.8 58.45 370.62 66.71 372.6 74.93C372.49 74.93 372.39 74.93 372.28 74.93C370.23 75.03 369.05 76.14 368.97 78.22C368.92 79.51 368.93 80.82 369.12 82.09C370.1 88.84 371.63 95.54 372.07 102.32C373.02 116.74 371.82 131.03 367.49 144.92C364.51 154.48 360.82 163.66 352.74 170.32C348.97 173.43 344.79 175.19 339.58 175.33C339.84 174.65 339.96 174.29 340.11 173.96C346.72 159.63 350.23 144.49 351.52 128.86C352.29 119.52 352 110.15 350.75 100.81C349.32 90.12 346.29 79.97 341.21 70.46Z" fill="black"/>
<path d="M428.4 104.93C420.11 105.38 411.81 105.11 403.51 105.14C402.57 105.14 401.62 105.14 400.68 105.14C400.67 105.03 400.65 104.93 400.64 104.82C400.86 104.65 401.07 104.45 401.3 104.31C404.34 102.3 407.43 100.5 410.41 98.23C412.23 96.84 413.92 94.84 415.59 92.92C417.91 90.26 419.11 86.5 418.69 81.48C419.07 81.44 419.29 81.4 419.5 81.4C434.12 81.4 448.74 81.4 463.36 81.4C463.62 81.4 463.89 81.38 464.15 81.47C465.36 81.9 465.89 83.44 465.31 85.32C464.89 86.68 464.28 87.96 463.59 88.96C458.16 96.84 451.66 100.5 444.86 102.32C439.42 103.77 433.9 104.63 428.4 104.93Z" fill="#ED7004"/>
<path d="M396.07 135.09C394.83 135.09 393.58 135.09 392.34 135.09C392.43 134.66 392.54 134.58 392.64 134.52C392.93 134.36 393.22 134.22 393.51 134.06C398.07 131.48 402.52 128.48 406.47 123.59C408.77 120.74 410.47 117.39 409.91 111.72C410.37 111.68 410.67 111.64 410.97 111.64C421.11 111.64 431.25 111.64 441.39 111.64C445.69 111.64 449.99 111.59 454.29 111.7C454.89 111.72 455.76 112.3 456.01 113.1C456.27 113.91 455.99 115.34 455.8 116.42C455.68 117.09 455.34 117.77 454.99 118.18C452.75 120.79 450.6 123.77 448.19 125.79C440.06 132.61 431.27 134.48 422.4 134.91C413.63 135.33 404.85 135.06 396.07 135.09Z" fill="#ED7004"/>
<path d="M387.59 152.42C389.47 149.86 390.6 146.55 390.02 141.88C390.56 141.88 390.99 141.88 391.43 141.88C405.66 141.88 419.89 141.86 434.12 141.94C434.81 141.94 435.97 142.54 436.09 143.26C436.29 144.47 435.88 146.05 435.6 147.4C435.48 147.98 435.09 148.42 434.78 148.86C432.1 152.73 429.13 155.74 425.88 157.89C417.94 163.14 409.64 164.91 401.24 165.18C391.98 165.48 382.71 165.25 373.44 165.25C373.04 165.25 372.63 165.25 372.23 165.25C372.59 164.75 372.95 164.54 373.31 164.35C378.41 161.62 383.34 158.22 387.59 152.42Z" fill="#ED7004"/>
<path d="M380.05 105.14C379.58 105.15 379.11 105.14 378.73 105.14C378.14 97.1299 377.56 89.3999 376.98 81.4599C377.28 81.4299 377.5 81.3999 377.71 81.3999C396.9 81.3999 395.14 81.3799 414.34 81.4599C415.01 81.4599 415.95 82.1599 416.26 83.0599C416.53 83.8399 416.18 85.4199 415.93 86.5399C415.77 87.2699 415.37 87.9299 414.98 88.3999C413.19 90.5599 411.46 92.9299 409.54 94.6799C401.68 101.86 393.07 103.93 384.38 104.61C375.97 105.27 388.48 105 380.05 105.14Z" fill="#E30613"/>
<path d="M374.49 134.91C368.97 135.34 384.38 135.05 378.85 135.08C378.38 135.08 377.91 135.08 377.55 135.08C377.97 127.16 378.37 119.54 378.79 111.63C379.13 111.63 379.48 111.63 379.83 111.63C395.42 111.63 390.05 111.63 405.63 111.63C405.81 111.63 405.98 111.61 406.16 111.64C407.56 111.83 408.18 113.54 407.56 115.74C407.3 116.67 406.95 117.71 406.47 118.26C404.08 121.03 401.76 124.13 399.17 126.23C391.38 132.57 382.96 134.25 374.49 134.91Z" fill="#E30613"/>
<path d="M386.13 141.89C387.72 141.89 388.38 143.76 387.57 146.14C387.14 147.41 386.49 148.54 385.83 149.5C381.67 155.48 376.8 159.02 371.62 161.02C367.34 162.67 383.93 163.8 379.57 164.65C376.86 165.18 374.09 164.75 371.66 164.75C373.28 157.51 375 149.82 376.77 141.89C386.8 141.88 375.99 141.87 386.13 141.89Z" fill="#E30613"/>
<path d="M210.02 63.3H206.28C205.93 63.3 205.59 63.31 205.27 63.32C204.31 63.35 203.49 63.44 202.79 63.6C200.69 64.08 199.69 65.22 199.32 67.49C199.2 68.25 199.14 69.13 199.14 70.16V73.65V85.4H223.71V161.3H241.14C242.62 161.3 243.8 161.22 244.75 161.02C245.46 160.86 246.03 160.63 246.5 160.31C246.81 160.09 247.07 159.83 247.29 159.52C247.39 159.38 247.47 159.24 247.55 159.08C247.71 158.77 247.84 158.42 247.94 158.03C247.99 157.83 248.04 157.62 248.07 157.4C248.19 156.74 248.25 155.97 248.27 155.09C248.28 154.79 248.28 154.49 248.28 154.16V85.39H266.81C267.16 85.39 267.5 85.38 267.82 85.37C268.46 85.35 269.04 85.3 269.56 85.22C269.82 85.18 270.07 85.14 270.3 85.08C271.47 84.81 272.29 84.33 272.86 83.57C272.96 83.44 273.05 83.29 273.14 83.14C273.39 82.68 273.58 82.14 273.71 81.5C273.84 80.86 273.91 80.12 273.94 79.27C273.95 78.99 273.95 78.69 273.95 78.38V74V63.3H261.97H210.02Z" fill="black"/>
<path d="M236 27.3L213.24 58.84H258.76L236 27.3Z" fill="#E30613"/>
<path d="M183.36 189.3L236 172.01L288.64 189.3L288.46 133.9L321.17 89.1801L278.41 75.4401V78.4001C278.41 81.4101 278.08 84.8101 275.59 87.2101C273.18 89.5401 269.8 89.8601 266.81 89.8601H252.74V154.17C252.74 157.21 252.53 160.65 250.08 163.1C247.62 165.56 244.18 165.76 241.15 165.76H223.72H219.26V161.3V89.8501H199.15H194.69V85.3901V75.0801L150.83 89.1801L183.54 133.9L183.36 189.3Z" fill="#E30613"/>
<path d="M273.71 81.51C273.84 80.87 273.91 80.13 273.94 79.28C273.91 80.13 273.84 80.87 273.71 81.51Z" fill="#E30613"/>
<path d="M236.55 217.33C291.651 217.33 336.32 172.661 336.32 117.56C336.32 62.4586 291.651 17.79 236.55 17.79C181.449 17.79 136.78 62.4586 136.78 117.56C136.78 172.661 181.449 217.33 236.55 217.33Z" stroke="black" stroke-width="19.197" stroke-miterlimit="10"/>
</svg>
