<svg width="2072" height="756" viewBox="0 0 2072 756" fill="none" xmlns="http://www.w3.org/2000/svg">
<path d="M1191.32 380.599L1191.84 547.753L1033.02 495.594L874.21 547.753L874.75 380.599L776.064 245.675L908.399 203.136V247.704H982.526V476.715H1048.56C1057.72 476.715 1068.11 476.095 1075.52 468.696C1082.93 461.286 1083.55 450.896 1083.55 441.737V247.704H1126.01C1135.04 247.704 1145.23 246.755 1152.5 239.725C1159.98 232.475 1161 222.215 1161 213.136V204.206L1290 245.675L1191.32 380.599ZM1033.02 58.9821L1101.71 154.128H964.357L1033.02 58.9821ZM1126.01 234.255H1070.11V441.737C1070.11 442.707 1070.09 443.637 1070.07 444.526C1069.99 447.206 1069.81 449.516 1069.45 451.506C1069.34 452.176 1069.2 452.796 1069.05 453.396C1068.74 454.576 1068.36 455.636 1067.88 456.566C1067.64 457.036 1067.38 457.466 1067.09 457.886C1066.43 458.826 1065.65 459.606 1064.72 460.256C1063.31 461.236 1061.58 461.936 1059.44 462.406C1056.59 463.036 1053.01 463.266 1048.56 463.266H995.976V234.255H921.848V188.277C921.848 185.177 922.008 182.507 922.378 180.217C923.488 173.367 926.518 169.938 932.858 168.488C934.968 167.998 937.438 167.738 940.338 167.628C941.308 167.588 942.318 167.588 943.378 167.588H1147.55V213.136C1147.55 214.056 1147.53 214.946 1147.5 215.796C1147.42 218.366 1147.19 220.596 1146.8 222.526C1146.43 224.445 1145.86 226.095 1145.11 227.465C1144.85 227.935 1144.57 228.365 1144.27 228.775C1142.55 231.085 1140.06 232.525 1136.54 233.345C1135.84 233.505 1135.09 233.635 1134.31 233.755C1132.73 233.995 1130.99 234.135 1129.05 234.205C1128.08 234.235 1127.07 234.255 1126.01 234.255ZM1034.69 44.0327C874.99 44.0327 745.056 173.957 745.056 333.661C745.056 423.437 786.114 503.794 850.441 556.972C851.671 556.902 852.921 556.872 854.181 556.872H1219.07C1283.32 503.704 1324.33 423.377 1324.33 333.661C1324.33 173.957 1194.41 44.0327 1034.69 44.0327Z" fill="#FEFEFE"/>
<path d="M924.608 687.617H902.309V665.138H924.608C933.728 665.138 936.548 666.538 936.548 676.197C936.548 686.207 933.728 687.617 924.608 687.617ZM902.309 618.95H923.198C930.428 618.95 933.148 620.09 933.358 628.209C933.368 628.579 933.388 628.919 933.388 629.309C933.388 638.279 930.748 639.849 923.198 639.849H902.309V618.95ZM950.777 650.738C956.577 647.658 960.727 643.078 962.947 636.769C964.157 633.349 964.817 629.429 964.817 624.929C964.817 623.569 964.777 622.269 964.717 621.01C964.607 618.71 964.387 616.56 964.077 614.57C960.957 595.35 948.077 590.501 924.608 590.501H879.65C872.89 590.501 871.03 592.18 870.9 598.55C870.89 598.81 870.87 599.02 870.87 599.28V715.886H924.608C951.297 715.886 967.797 709.746 967.797 680.067C967.797 670.997 965.497 663.988 961.087 658.668C958.407 655.418 954.967 652.798 950.777 650.738Z" fill="#FEFEFE"/>
<path d="M1032.61 689.017C1017.45 689.017 1013.79 687.797 1013.34 666.158C1013.31 664.478 1013.29 662.688 1013.29 660.748V645.818C1013.29 645.308 1013.29 644.828 1013.29 644.338C1013.33 637.119 1013.6 631.809 1014.33 627.939C1014.73 625.769 1015.29 624.049 1016.02 622.679C1018.64 617.75 1023.59 617.369 1032.61 617.369C1041.88 617.369 1046.89 617.76 1049.49 622.929C1050.16 624.259 1050.67 625.929 1051.07 627.969C1051.8 631.899 1052.07 637.259 1052.1 644.588C1052.1 645.008 1052.11 645.398 1052.11 645.818V660.748C1052.11 662.788 1052.08 664.668 1052.04 666.418C1051.56 687.807 1047.86 689.017 1032.61 689.017ZM1081.87 624.709C1081.57 622.929 1081.25 621.219 1080.87 619.599C1075.05 594.68 1059 588.931 1032.61 588.931C1006.46 588.931 990.466 594.59 984.516 618.929C984.076 620.719 983.696 622.589 983.376 624.569C982.596 629.299 982.116 634.619 981.946 640.619C981.896 642.298 981.866 644.018 981.866 645.818V660.748C981.866 661.398 981.866 662.028 981.876 662.668C982.346 708.216 999.185 717.466 1032.61 717.466C1065.87 717.466 1082.71 708.306 1083.33 663.308C1083.35 662.458 1083.36 661.618 1083.36 660.748V645.818C1083.36 644.268 1083.35 642.768 1083.31 641.298C1083.15 635.079 1082.67 629.589 1081.87 624.709Z" fill="#FEFEFE"/>
<path d="M1172.05 650.918L1187.09 629.919L1197.35 615.62C1198.75 613.51 1199.8 611.23 1199.8 608.42V590.501H1181.89C1178.2 590.501 1174.51 592.261 1172.59 594.89L1171.77 596.13L1155.94 620.599L1149.04 631.239L1144.99 624.969L1136.04 611.15L1132.82 606.18L1125.52 594.89C1123.59 592.261 1119.9 590.501 1116.21 590.501H1098.3V608.42C1098.3 611.23 1099.35 613.51 1100.76 615.62L1100.8 615.68L1104.18 620.389L1114.47 634.749L1126.04 650.918L1123.18 654.918L1097.6 690.777C1096.36 692.886 1095.31 695.167 1095.31 697.976V715.886H1113.23C1117.26 715.886 1120.42 714.306 1122.53 711.326L1149.04 670.927L1175.57 711.326C1177.67 714.306 1180.83 715.886 1184.87 715.886H1202.79V697.976C1202.79 695.167 1201.73 692.886 1200.5 690.777L1172.05 650.918Z" fill="#FEFEFE"/>
<path d="M924.608 665.138H902.309V687.617H924.608C933.728 687.617 936.548 686.207 936.548 676.197C936.548 666.538 933.728 665.138 924.608 665.138Z" fill="#282827"/>
<path d="M1202.79 715.886H1184.87C1180.83 715.886 1177.67 714.306 1175.57 711.326L1149.04 670.928L1122.53 711.326C1120.42 714.306 1117.26 715.886 1113.23 715.886H1095.31V697.977C1095.31 695.167 1096.36 692.887 1097.6 690.777L1123.18 654.918L1126.04 650.918L1114.47 634.749L1104.18 620.39L1100.8 615.68L1100.76 615.62C1099.35 613.51 1098.3 611.23 1098.3 608.42V590.501H1116.21C1119.9 590.501 1123.59 592.261 1125.52 594.891L1132.82 606.18L1136.04 611.15L1144.99 624.969L1149.04 631.239L1155.94 620.599L1171.77 596.13L1172.59 594.891C1174.51 592.261 1178.2 590.501 1181.89 590.501H1199.8V608.42C1199.8 611.23 1198.75 613.51 1197.35 615.62L1187.09 629.919L1172.05 650.918L1200.5 690.777C1201.73 692.887 1202.79 695.167 1202.79 697.977V715.886ZM1032.61 717.466C999.185 717.466 982.346 708.216 981.876 662.668C981.866 662.028 981.866 661.398 981.866 660.748V645.818C981.866 644.019 981.896 642.299 981.946 640.619C982.116 634.619 982.596 629.299 983.376 624.569C983.696 622.589 984.076 620.72 984.516 618.93C990.466 594.591 1006.47 588.931 1032.61 588.931C1059 588.931 1075.05 594.681 1080.87 619.6C1081.25 621.219 1081.57 622.93 1081.87 624.709C1082.67 629.589 1083.15 635.079 1083.31 641.299C1083.35 642.769 1083.36 644.269 1083.36 645.818V660.748C1083.36 661.618 1083.35 662.458 1083.33 663.308C1082.71 708.306 1065.87 717.466 1032.61 717.466ZM924.608 715.886H870.87V599.28C870.87 599.02 870.89 598.81 870.9 598.55C871.03 592.181 872.89 590.501 879.65 590.501H924.608C948.077 590.501 960.957 595.35 964.077 614.57C964.387 616.56 964.607 618.71 964.717 621.01C964.777 622.27 964.817 623.569 964.817 624.929C964.817 629.429 964.157 633.349 962.947 636.769C960.727 643.079 956.577 647.659 950.777 650.738C954.967 652.798 958.407 655.418 961.087 658.668C965.497 663.988 967.797 670.997 967.797 680.067C967.797 709.746 951.297 715.886 924.608 715.886ZM850.441 556.972C786.114 503.794 745.056 423.437 745.056 333.661C745.056 173.957 874.99 44.0327 1034.69 44.0327C1194.41 44.0327 1324.33 173.957 1324.33 333.661C1324.33 423.377 1283.32 503.704 1219.07 556.872H854.181C852.921 556.872 851.671 556.902 850.441 556.972ZM1265.48 573.762C1328.58 513.104 1367.9 427.887 1367.9 333.661C1367.9 149.938 1218.42 0.454346 1034.69 0.454346C850.961 0.454346 701.487 149.938 701.487 333.661C701.487 428.847 741.616 514.844 805.843 575.611C791.304 588.811 782.144 607.84 782.144 628.909V683.697C782.144 723.315 814.563 755.734 854.181 755.734H1219.28C1258.91 755.734 1291.32 723.315 1291.32 683.697V628.909C1291.32 606.83 1281.25 587.001 1265.48 573.762Z" fill="#282827"/>
<path d="M923.198 639.849C930.748 639.849 933.388 638.279 933.388 629.309C933.388 628.919 933.368 628.579 933.358 628.209C933.148 620.09 930.428 618.95 923.198 618.95H902.309V639.849H923.198Z" fill="#282827"/>
<path d="M1051.07 627.969C1050.67 625.929 1050.16 624.259 1049.49 622.929C1046.89 617.76 1041.88 617.37 1032.61 617.37C1023.59 617.37 1018.64 617.75 1016.02 622.679C1015.29 624.049 1014.73 625.769 1014.33 627.939C1013.6 631.809 1013.33 637.119 1013.29 644.339C1013.29 644.829 1013.29 645.308 1013.29 645.818V660.748C1013.29 662.688 1013.31 664.478 1013.34 666.158C1013.79 687.797 1017.45 689.017 1032.61 689.017C1047.86 689.017 1051.56 687.807 1052.04 666.418C1052.08 664.668 1052.11 662.788 1052.11 660.748V645.818C1052.11 645.398 1052.1 645.008 1052.1 644.589C1052.07 637.259 1051.8 631.899 1051.07 627.969Z" fill="#282827"/>
<path d="M954.647 167.587H943.378C942.318 167.587 941.308 167.587 940.338 167.627C937.438 167.737 934.968 167.998 932.858 168.488C926.518 169.937 923.488 173.367 922.378 180.217C922.008 182.507 921.848 185.177 921.848 188.277V234.255H995.976V463.266H1048.56C1053.01 463.266 1056.59 463.036 1059.44 462.406C1061.58 461.936 1063.31 461.236 1064.72 460.256C1065.65 459.606 1066.43 458.826 1067.09 457.886C1067.38 457.466 1067.64 457.036 1067.88 456.566C1068.36 455.636 1068.74 454.576 1069.05 453.396C1069.2 452.796 1069.34 452.176 1069.45 451.506C1069.81 449.516 1069.99 447.206 1070.07 444.526C1070.09 443.636 1070.11 442.707 1070.11 441.737V234.255H1126.01C1127.07 234.255 1128.08 234.235 1129.05 234.205C1130.99 234.135 1132.73 233.995 1134.31 233.755C1135.09 233.635 1135.84 233.505 1136.54 233.345C1140.06 232.525 1142.55 231.085 1144.27 228.775C1144.57 228.365 1144.85 227.935 1145.11 227.465C1145.86 226.095 1146.43 224.445 1146.8 222.525C1147.19 220.595 1147.42 218.365 1147.5 215.795C1147.53 214.945 1147.55 214.056 1147.55 213.136V167.587H954.647Z" fill="#282827"/>
<path d="M718.727 496.425C698.797 453.196 688.198 407.518 684.298 360.33C681.968 332.151 682.828 303.882 686.638 275.723C690.977 243.485 700.137 212.866 715.447 184.167C721.356 173.087 728.446 162.578 733.726 151.228C740.846 135.909 735.476 126.459 719.087 123.379C716.637 122.919 714.037 123.099 711.507 123.099C478.786 123.089 246.065 123.089 13.3448 123.089C11.7249 123.089 10.1048 122.979 8.50491 123.119C2.82514 123.619 -0.594655 128.539 1.57526 133.829C2.83521 136.919 4.63506 140.419 7.24495 142.219C20.3944 151.308 33.1038 161.528 47.3932 168.358C88.7416 188.117 133.57 193.727 178.668 196.027C211.987 197.727 245.415 197.457 278.804 197.497C388.71 197.667 498.625 197.566 608.531 197.566C612.911 197.566 617.29 197.437 621.66 197.666C627.83 197.976 631.41 201.326 631.65 207.576C631.79 211.466 631.75 215.426 631.2 219.256C628.23 239.605 623.63 259.834 622.29 280.283C619.44 323.791 623.05 366.92 636.12 408.798C645.119 437.667 656.239 465.356 680.618 485.445C691.977 494.805 704.587 500.144 720.327 500.554C719.537 498.484 719.196 497.425 718.727 496.425Z" fill="#282827"/>
<path d="M232.046 288.173C275.534 289.523 319.092 288.703 362.621 288.803C367.58 288.813 372.53 288.813 377.49 288.813C377.55 288.483 377.62 288.163 377.69 287.843C376.55 287.333 375.43 286.753 374.25 286.303C358.301 280.253 342.082 274.803 326.472 267.954C316.913 263.754 308.083 257.724 299.313 251.934C287.144 243.905 280.874 232.565 283.034 217.426C281.024 217.306 279.894 217.196 278.774 217.196C202.067 217.186 125.37 217.176 48.6732 217.186C47.2933 217.186 45.8835 217.116 44.5435 217.386C38.2038 218.666 35.4038 223.325 38.4637 228.995C40.6636 233.095 43.8835 236.965 47.4633 239.965C75.9222 263.724 110.041 274.773 145.719 280.283C174.238 284.673 203.207 287.273 232.046 288.173Z" fill="#ED721D"/>
<path d="M401.659 379.179C408.169 379.199 414.699 379.179 421.218 379.179C420.728 377.879 420.178 377.639 419.618 377.469C418.108 376.979 416.579 376.559 415.069 376.059C391.13 368.279 367.791 359.22 347.061 344.461C334.982 335.871 326.062 325.771 329.012 308.642C326.572 308.522 325.012 308.392 323.452 308.392C270.254 308.392 217.066 308.392 163.879 308.392C141.319 308.392 118.76 308.222 96.2113 308.572C93.0514 308.622 88.5116 310.392 87.2017 312.782C85.8517 315.222 87.2918 319.551 88.3017 322.801C88.9417 324.821 90.7216 326.891 92.5315 328.101C104.291 335.961 115.551 344.97 128.19 351.06C170.838 371.629 216.977 377.279 263.515 378.589C309.533 379.899 355.601 379.079 401.659 379.179Z" fill="#ED721D"/>
<path d="M446.177 431.467C436.308 423.727 430.398 413.758 433.418 399.658C430.618 399.658 428.328 399.658 426.048 399.658C351.381 399.658 276.724 399.598 202.057 399.828C198.427 399.828 192.337 401.618 191.728 403.798C190.708 407.458 192.858 412.198 194.287 416.268C194.917 418.028 196.997 419.357 198.577 420.687C212.627 432.367 228.216 441.457 245.285 447.936C286.924 463.766 330.492 469.105 374.58 469.915C423.178 470.805 471.816 470.125 520.434 470.125C522.564 470.125 524.684 470.125 526.814 470.125C524.934 468.625 523.044 467.995 521.134 467.415C494.325 459.236 468.456 448.946 446.177 431.467Z" fill="#ED721D"/>
<path d="M2064.26 123.119C2062.67 122.979 2061.05 123.089 2059.43 123.089C1826.71 123.089 1593.99 123.089 1361.26 123.099C1358.74 123.099 1356.15 122.919 1353.69 123.379C1337.3 126.459 1331.94 135.909 1339.06 151.228C1344.33 162.578 1351.43 173.087 1357.33 184.167C1372.63 212.866 1381.8 243.485 1386.15 275.723C1389.95 303.882 1390.81 332.151 1388.49 360.33C1384.58 407.518 1373.98 453.196 1354.05 496.425C1353.59 497.425 1353.25 498.484 1352.46 500.554C1368.2 500.144 1380.79 494.805 1392.17 485.445C1416.55 465.356 1427.66 437.667 1436.66 408.798C1449.74 366.92 1453.34 323.791 1450.49 280.283C1449.15 259.834 1444.54 239.605 1441.59 219.256C1441.03 215.426 1440.99 211.466 1441.13 207.576C1441.38 201.326 1444.94 197.976 1451.13 197.666C1455.5 197.437 1459.88 197.566 1464.25 197.566C1574.15 197.566 1684.06 197.667 1793.97 197.497C1827.35 197.457 1860.79 197.727 1894.11 196.027C1939.21 193.727 1984.04 188.117 2025.38 168.358C2039.67 161.528 2052.39 151.308 2065.53 142.219C2068.15 140.419 2069.95 136.919 2071.21 133.829C2073.36 128.539 2069.96 123.619 2064.26 123.119Z" fill="#282827"/>
<path d="M2028.24 217.386C2026.9 217.116 2025.48 217.186 2024.1 217.186C1947.42 217.176 1870.71 217.186 1794.01 217.196C1792.88 217.196 1791.76 217.306 1789.75 217.426C1791.91 232.565 1785.63 243.905 1773.46 251.934C1764.69 257.724 1755.87 263.754 1746.31 267.954C1730.71 274.803 1714.48 280.253 1698.53 286.303C1697.36 286.753 1696.23 287.333 1695.1 287.843C1695.15 288.163 1695.23 288.483 1695.3 288.813C1700.25 288.813 1705.21 288.813 1710.17 288.803C1753.69 288.703 1797.24 289.523 1840.74 288.173C1869.58 287.273 1898.54 284.673 1927.06 280.283C1962.74 274.773 1996.85 263.724 2025.31 239.965C2028.9 236.965 2032.1 233.095 2034.32 228.995C2037.37 223.325 2034.57 218.666 2028.24 217.386Z" fill="#ED721D"/>
<path d="M1976.58 308.572C1954.02 308.222 1931.46 308.392 1908.9 308.392C1855.71 308.392 1802.51 308.392 1749.33 308.392C1747.78 308.392 1746.21 308.522 1743.77 308.642C1746.72 325.771 1737.79 335.871 1725.72 344.461C1705 359.22 1681.66 368.279 1657.71 376.059C1656.2 376.559 1654.67 376.979 1653.17 377.469C1652.59 377.639 1652.05 377.879 1651.56 379.179C1658.09 379.179 1664.6 379.199 1671.13 379.179C1717.18 379.079 1763.24 379.899 1809.26 378.589C1855.81 377.279 1901.94 371.629 1944.59 351.06C1957.23 344.97 1968.49 335.961 1980.25 328.101C1982.07 326.891 1983.84 324.821 1984.47 322.801C1985.49 319.551 1986.93 315.222 1985.58 312.782C1984.27 310.392 1979.73 308.622 1976.58 308.572Z" fill="#ED721D"/>
<path d="M1870.72 399.828C1796.05 399.598 1721.4 399.658 1646.74 399.658C1644.45 399.658 1642.17 399.658 1639.36 399.658C1642.38 413.758 1636.47 423.727 1626.61 431.467C1604.32 448.946 1578.46 459.236 1551.64 467.415C1549.73 467.995 1547.84 468.625 1545.97 470.125C1548.09 470.125 1550.21 470.125 1552.34 470.125C1600.96 470.125 1649.6 470.805 1698.2 469.915C1742.29 469.105 1785.85 463.766 1827.5 447.936C1844.56 441.457 1860.16 432.367 1874.2 420.687C1875.78 419.357 1877.87 418.028 1878.49 416.268C1879.93 412.198 1882.07 407.458 1881.05 403.798C1880.44 401.618 1874.35 399.828 1870.72 399.828Z" fill="#ED721D"/>
<path d="M1033.02 58.9819L964.357 154.128H1101.71L1033.02 58.9819Z" fill="#E31E24"/>
<path d="M874.21 547.753L1033.02 495.595L1191.84 547.753L1191.32 380.599L1290 245.675L1161 204.206V213.136C1161 222.215 1159.98 232.475 1152.5 239.725C1145.23 246.755 1135.04 247.705 1126.01 247.705H1083.55V441.737C1083.55 450.896 1082.93 461.286 1075.52 468.696C1068.11 476.095 1057.72 476.715 1048.56 476.715H982.526V247.705H908.399V203.136L776.064 245.675L874.75 380.599L874.21 547.753Z" fill="#E31E24"/>
<path d="M1146.8 222.526C1147.19 220.596 1147.42 218.365 1147.5 215.795C1147.42 218.365 1147.19 220.596 1146.8 222.526Z" fill="#E31E24"/>
<path d="M595.661 288.803C598.131 288.813 600.601 288.803 602.581 288.803C605.701 264.624 608.701 241.325 611.791 217.365C610.201 217.286 609.071 217.186 607.951 217.186C507.245 217.176 406.549 217.126 305.843 217.376C302.333 217.396 297.403 219.485 295.753 222.205C294.333 224.545 296.193 229.335 297.483 232.695C298.313 234.895 300.443 236.905 302.463 238.305C311.873 244.804 320.952 251.974 331.022 257.254C372.27 278.923 417.439 285.173 462.997 287.223C507.155 289.213 551.443 288.393 595.661 288.803Z" fill="#E31E24"/>
<path d="M514.875 378.629C543.833 379.909 572.902 379.049 601.921 379.149C604.381 379.159 606.841 379.149 608.721 379.149C606.531 355.26 604.421 332.271 602.221 308.392C600.431 308.392 598.601 308.392 596.772 308.392C515.005 308.392 433.238 308.392 351.471 308.392C350.551 308.392 349.621 308.332 348.711 308.402C341.342 308.972 338.122 314.142 341.362 320.771C342.742 323.591 344.582 326.701 347.092 328.371C359.651 336.711 371.82 346.07 385.37 352.42C426.278 371.559 470.436 376.649 514.875 378.629Z" fill="#E31E24"/>
<path d="M453.837 399.688C445.508 399.698 442.038 405.328 446.268 412.498C448.537 416.338 451.917 419.747 455.397 422.627C477.196 440.676 502.755 451.346 529.964 457.376C552.423 462.336 575.312 465.765 598.191 468.325C612.411 469.915 626.95 468.615 639.68 468.615C631.2 446.796 622.18 423.577 612.881 399.658C560.223 399.658 507.025 399.618 453.837 399.688Z" fill="#E31E24"/>
<path d="M1777.01 222.205C1775.37 219.485 1770.44 217.396 1766.93 217.376C1666.24 217.126 1565.54 217.176 1464.84 217.186C1463.71 217.186 1462.58 217.286 1460.99 217.365C1464.08 241.325 1467.08 264.624 1470.2 288.803C1472.18 288.803 1474.65 288.813 1477.11 288.803C1521.34 288.393 1565.62 289.213 1609.79 287.223C1655.34 285.173 1700.51 278.923 1741.77 257.254C1751.83 251.974 1760.9 244.804 1770.3 238.305C1772.33 236.905 1774.46 234.895 1775.3 232.695C1776.58 229.335 1778.44 224.545 1777.01 222.205Z" fill="#E31E24"/>
<path d="M1724.08 308.402C1723.16 308.332 1722.24 308.392 1721.31 308.392C1639.54 308.392 1557.77 308.392 1476 308.392C1474.18 308.392 1472.34 308.392 1470.56 308.392C1468.36 332.271 1466.26 355.26 1464.06 379.149C1465.94 379.149 1468.4 379.159 1470.86 379.149C1499.88 379.049 1528.94 379.909 1557.9 378.629C1602.35 376.649 1646.51 371.559 1687.41 352.42C1700.96 346.07 1713.14 336.711 1725.69 328.371C1728.2 326.701 1730.04 323.591 1731.42 320.771C1734.67 314.142 1731.44 308.972 1724.08 308.402Z" fill="#E31E24"/>
<path d="M1474.59 468.325C1497.47 465.765 1520.34 462.336 1542.81 457.376C1570.02 451.346 1595.57 440.676 1617.37 422.627C1620.86 419.747 1624.25 416.338 1626.51 412.498C1630.74 405.328 1627.28 399.698 1618.94 399.688C1565.75 399.618 1512.56 399.658 1459.9 399.658C1450.61 423.577 1441.59 446.796 1433.1 468.615C1445.83 468.615 1460.38 469.915 1474.59 468.325Z" fill="#E31E24"/>
</svg>
