<svg width="2072" height="1232" viewBox="0 0 2072 1232" fill="none" xmlns="http://www.w3.org/2000/svg">
<path d="M171.211 1151.59L198.6 1126.38C200.43 1124.71 201.27 1122.35 201.27 1119.36V1109.51H191.24C188.571 1109.51 187.571 1110.01 185.581 1112.02L156.182 1145.07H155.182V1109.51H142.492C138.653 1109.51 136.643 1111.35 136.643 1115.18V1145.07H135.813L106.254 1112.02C104.254 1110.01 103.254 1109.51 100.584 1109.51H90.7245V1119.36C90.7245 1122.35 91.5644 1124.71 93.3944 1126.38L120.783 1151.59L91.2245 1182.14C90.0545 1183.31 89.3845 1185.15 89.3845 1187.49V1197.51H99.2441C101.744 1197.51 103.754 1197.33 106.254 1194.17L135.813 1157.76H136.643V1197.51H149.502C153.342 1197.51 155.182 1195.67 155.182 1191.82V1157.76H156.182L185.581 1194.17C188.241 1197.33 190.081 1197.51 192.58 1197.51H202.6V1187.49C202.6 1185.15 201.93 1183.31 200.77 1182.14L171.211 1151.59Z" fill="#2B2A29"/>
<path d="M317.296 1145.07H282.067C282.567 1125.53 285.397 1123.69 300.256 1123.69C315.616 1123.69 317.296 1126.54 317.296 1142.23V1145.07ZM300.256 1108.17C274.707 1108.17 264.858 1119.36 264.858 1153.59C264.858 1181.63 270.537 1197.5 306.106 1197.5H331.655V1187.65C331.655 1183.81 329.815 1181.81 325.985 1181.81H308.936C286.237 1181.81 282.567 1180.64 282.067 1159.27H328.815C332.825 1159.27 334.325 1157.6 334.325 1153.59V1145.07C334.325 1116.53 323.135 1108.17 300.256 1108.17Z" fill="#2B2A29"/>
<path d="M465.56 1109.51H417.301C414.622 1109.51 412.292 1110.51 411.792 1115.35L404.932 1181.81H397.262C393.422 1181.81 391.583 1183.65 391.583 1187.49V1197.51H400.262C419.971 1197.51 423.301 1189.15 424.641 1177.64L429.821 1125.21H452.7V1191.82C452.7 1195.67 454.53 1197.51 458.37 1197.51H471.069V1115.18C471.069 1111.35 469.229 1109.51 465.56 1109.51Z" fill="#2B2A29"/>
<path d="M588.765 1145.07H553.526C554.026 1125.53 556.866 1123.69 571.725 1123.69C587.095 1123.69 588.765 1126.54 588.765 1142.23V1145.07ZM571.725 1108.17C546.176 1108.17 536.327 1119.36 536.327 1153.59C536.327 1181.63 542.007 1197.5 577.575 1197.5H603.124V1187.65C603.124 1183.81 601.284 1181.81 597.444 1181.81H580.405C557.706 1181.81 554.026 1180.64 553.526 1159.27H600.274C604.284 1159.27 605.794 1157.6 605.794 1153.59V1145.07C605.794 1116.53 594.604 1108.17 571.725 1108.17Z" fill="#2B2A29"/>
<path d="M722.319 1109.51H667.052V1119.36C667.052 1123.19 668.891 1125.03 672.731 1125.03H705.45L687.601 1147.74C684.741 1151.59 684.741 1155.42 687.601 1159.1L705.45 1181.97H672.731C668.891 1181.97 667.052 1183.81 667.052 1187.65V1197.51H722.319C726.169 1197.51 727.999 1195.67 727.999 1191.82V1183.65L704.45 1153.43L727.999 1123.37V1115.18C727.999 1111.35 726.169 1109.51 722.319 1109.51Z" fill="#2B2A29"/>
<path d="M856.394 1109.51H843.525V1143.57H811.976V1115.18C811.976 1111.35 809.976 1109.51 806.126 1109.51H793.267V1191.82C793.267 1195.67 795.277 1197.51 799.106 1197.51H811.976V1159.27H843.525V1191.82C843.525 1195.67 845.535 1197.51 849.374 1197.51H862.064V1115.18C862.064 1111.35 860.234 1109.51 856.394 1109.51Z" fill="#2B2A29"/>
<path d="M1015.83 1109.51H1003.15V1191.82C1003.15 1195.67 1004.98 1197.51 1008.66 1197.51H1021.51V1115.18C1021.51 1111.35 1019.68 1109.51 1015.83 1109.51Z" fill="#2B2A29"/>
<path d="M962.06 1181.81H947.7V1156.26H962.06C973.429 1156.26 974.749 1157.76 974.749 1169.12C974.749 1180.48 973.429 1181.81 962.06 1181.81ZM962.06 1140.73H947.7V1115.18C947.7 1111.17 946.2 1109.51 942.191 1109.51H929.331V1191.82C929.331 1195.67 931.341 1197.51 935.191 1197.51H962.06C981.769 1197.51 991.789 1191.82 991.789 1169.12C991.789 1146.41 984.779 1140.73 962.06 1140.73Z" fill="#2B2A29"/>
<path d="M1124.35 1096.71C1141.22 1096.71 1146.89 1090.86 1146.89 1076.83V1068.33H1138.37C1134.52 1068.33 1132.7 1069.82 1132.7 1073.83C1132.7 1083.19 1130.51 1083.85 1124.35 1083.85C1117.67 1083.85 1115.67 1083.19 1115.67 1073.83C1115.67 1069.82 1114.15 1068.33 1110.15 1068.33H1101.47V1076.83C1101.47 1090.86 1107.14 1096.71 1124.35 1096.71Z" fill="#2B2A29"/>
<path d="M1156.9 1109.51H1146.89L1107.14 1164.78V1115.18C1107.14 1111.35 1105.3 1109.51 1101.63 1109.51H1088.77V1191.82C1088.77 1195.67 1090.62 1197.51 1094.45 1197.51H1104.48L1144.05 1142.23V1191.82C1144.05 1195.67 1146.04 1197.51 1149.89 1197.51H1162.58V1115.18C1162.58 1111.35 1160.74 1109.51 1156.9 1109.51Z" fill="#2B2A29"/>
<path d="M1314.83 1153.59C1314.83 1190.49 1323.36 1197.51 1361.75 1197.51H1377.45V1187.65C1377.45 1183.81 1375.62 1181.97 1371.77 1181.97H1361.75C1335.03 1181.97 1331.86 1180.48 1331.86 1153.59C1331.86 1126.54 1335.03 1125.21 1361.75 1125.21H1371.77C1375.62 1125.21 1377.45 1123.37 1377.45 1119.52V1109.51H1361.75C1323.53 1109.51 1314.83 1116.69 1314.83 1153.59Z" fill="#2B2A29"/>
<path d="M1490.97 1145.07H1455.74C1456.24 1125.53 1459.08 1123.69 1473.93 1123.69C1489.31 1123.69 1490.97 1126.54 1490.97 1142.23V1145.07ZM1473.93 1108.17C1448.39 1108.17 1438.53 1119.36 1438.53 1153.59C1438.53 1181.63 1444.21 1197.5 1479.79 1197.5H1505.34V1187.65C1505.34 1183.81 1503.51 1181.81 1499.66 1181.81H1482.63C1459.91 1181.81 1456.24 1180.64 1455.74 1159.27H1502.5C1506.51 1159.27 1508 1157.6 1508 1153.59V1145.07C1508 1116.53 1496.82 1108.17 1473.93 1108.17Z" fill="#2B2A29"/>
<path d="M1610.17 1183.31C1595.32 1183.31 1591.81 1176.3 1591.81 1154.93V1152.09C1591.81 1129.38 1595.32 1123.69 1610.17 1123.69C1628.04 1123.69 1631.55 1125.03 1631.55 1153.59C1631.55 1181.97 1628.04 1183.31 1610.17 1183.31ZM1615.86 1108.17C1601.66 1108.17 1597.33 1110.17 1594.14 1117.01L1590.3 1124.87L1588.97 1115.18C1588.3 1111.17 1587.3 1109.51 1583.3 1109.51H1573.27V1225.88C1573.27 1229.73 1575.13 1231.56 1578.95 1231.56H1591.81V1183.65L1595.65 1191.49C1597.81 1196.17 1600.32 1199 1615.86 1199C1641.57 1199 1650.08 1190.49 1650.08 1153.59C1650.08 1116.69 1641.57 1108.17 1615.86 1108.17Z" fill="#2B2A29"/>
<path d="M1757.77 1181.81H1733.72V1160.61H1757.77C1766.45 1160.61 1767.79 1161.93 1767.79 1170.46C1767.79 1179.14 1766.45 1181.81 1757.77 1181.81ZM1733.72 1125.21H1755.1C1763.28 1125.21 1765.12 1127.2 1765.12 1135.72C1765.12 1144.24 1763.28 1146.41 1755.1 1146.41H1733.72V1125.21ZM1769.3 1152.59C1778.64 1149.42 1782.15 1144.74 1782.15 1133.55C1782.15 1116.53 1776.3 1109.51 1755.1 1109.51H1721.03C1717.18 1109.51 1715.35 1111.35 1715.35 1115.18V1197.51H1757.77C1776.98 1197.51 1784.82 1188.83 1784.82 1173.46C1784.82 1161.43 1780.47 1153.25 1769.3 1152.59Z" fill="#2B2A29"/>
<path d="M1918.2 1109.51H1908.19L1868.45 1164.78V1115.18C1868.45 1111.35 1866.61 1109.51 1862.93 1109.51H1850.08V1191.82C1850.08 1195.67 1851.91 1197.51 1855.76 1197.51H1865.77L1905.36 1142.23V1191.82C1905.36 1195.67 1907.35 1197.51 1911.19 1197.51H1923.89V1115.18C1923.89 1111.35 1922.05 1109.51 1918.2 1109.51Z" fill="#2B2A29"/>
<path d="M1989.16 1153.59C1989.16 1190.49 1997.67 1197.51 2036.09 1197.51H2051.78V1187.65C2051.78 1183.81 2049.93 1181.97 2046.09 1181.97H2036.09C2009.36 1181.97 2006.19 1180.48 2006.19 1153.59C2006.19 1126.54 2009.36 1125.21 2036.09 1125.21H2046.09C2049.93 1125.21 2051.78 1123.37 2051.78 1119.52V1109.51H2036.09C1997.84 1109.51 1989.16 1116.69 1989.16 1153.59Z" fill="#2B2A29"/>
<path d="M231.089 784.652H40.2266C24.3572 784.652 20.0974 788.521 20.0974 804.011V846.979H89.3846V1061.07H138.553C155.212 1061.07 158.692 1057.58 158.692 1040.94V846.979H210.96C226.829 846.979 231.089 843.119 231.089 827.24V784.652Z" fill="#E31E24"/>
<path d="M342.195 936.026H296.126C297.286 909.697 299.996 906.207 318.966 906.207C337.935 906.207 342.195 909.317 342.195 929.446V936.026ZM318.966 847.369C253.528 847.369 230.309 876.788 230.309 955.765C230.309 1028.55 250.058 1061.07 322.445 1061.07H401.812V1021.58C401.812 1005.7 397.562 1002.22 381.683 1002.22H329.425C308.126 1002.22 299.216 999.903 298.066 982.084H388.263C404.132 982.084 408.392 978.234 408.392 962.745V929.446C408.392 863.239 371.613 847.369 318.966 847.369Z" fill="#E31E24"/>
<path d="M439.371 955.765C439.371 1034.74 462.59 1061.07 554.346 1061.07H593.824V1021.58C593.824 1005.7 589.965 1001.83 574.095 1001.83H554.346C511.758 1001.83 508.268 998.743 508.268 955.765C508.268 913.186 511.758 909.697 554.346 909.697H574.095C589.965 909.697 593.824 905.827 593.824 889.957V850.469H554.346C462.59 850.469 439.371 876.788 439.371 955.765Z" fill="#E31E24"/>
<path d="M756.808 846.979C721.189 846.979 713.84 850.079 703.39 870.598L697.57 882.598V791.231C697.57 775.362 693.701 771.492 677.841 771.492H628.673V1041.33C628.673 1057.19 632.533 1061.07 648.422 1061.07H697.57V936.025C697.57 912.796 704.17 906.207 727.379 906.207C750.228 906.207 753.708 909.316 753.708 932.546V1041.33C753.708 1057.19 757.578 1061.07 773.457 1061.07H822.625V916.276C822.625 850.079 796.306 846.979 756.808 846.979Z" fill="#E31E24"/>
<path d="M989.869 846.979C950.76 846.979 943.4 850.079 932.951 870.598L927.151 882.598L924.061 870.208C919.801 854.729 916.692 850.469 904.302 850.469H861.334V1041.33C861.334 1057.19 865.204 1061.07 881.083 1061.07H930.641V936.025C930.641 912.796 937.211 906.207 960.06 906.207C983.289 906.207 986.379 909.317 986.379 932.546V1041.33C986.379 1057.19 990.648 1061.07 1006.12 1061.07H1055.68V916.276C1055.68 850.079 1029.35 846.979 989.869 846.979Z" fill="#E31E24"/>
<path d="M1185.75 1005.32C1162.52 1005.32 1159.42 1002.22 1159.42 955.765C1159.42 909.697 1162.52 906.207 1185.75 906.207C1208.98 906.207 1212.08 909.697 1212.08 955.765C1212.08 1002.22 1208.98 1005.32 1185.75 1005.32ZM1185.75 847.369C1112.97 847.369 1090.52 876.788 1090.52 955.765C1090.52 1035.12 1112.97 1064.16 1185.75 1064.16C1258.15 1064.16 1281.37 1035.12 1281.37 955.765C1281.37 876.788 1258.15 847.369 1185.75 847.369Z" fill="#E31E24"/>
<path d="M1438.55 998.743H1389.38V949.185H1438.55C1458.68 949.185 1464.87 952.275 1464.87 973.564C1464.87 995.643 1458.68 998.743 1438.55 998.743ZM1389.38 847.369H1435.45C1452.09 847.369 1457.91 850.079 1457.91 870.208C1457.91 889.957 1452.09 893.437 1435.45 893.437H1389.38V847.369ZM1496.24 917.446C1515.98 906.997 1527.2 888.787 1527.2 860.528C1527.2 798.971 1498.55 784.652 1438.55 784.652H1339.44C1323.96 784.652 1320.09 788.521 1320.09 804.011V1061.07H1438.55C1497.39 1061.07 1533.79 1047.52 1533.79 982.084C1533.79 949.955 1520.62 929.446 1496.24 917.446Z" fill="#E31E24"/>
<path d="M1719.61 939.505C1719.61 998.743 1713.02 1001.83 1676.63 1001.83C1640.63 1001.83 1634.05 998.743 1634.05 939.505V906.587C1634.05 846.599 1640.63 843.879 1676.63 843.879C1713.02 843.879 1719.61 846.599 1719.61 906.587V939.505ZM1676.63 781.162C1601.91 781.162 1564.75 802.071 1564.75 906.587V939.505C1564.75 1043.65 1601.91 1064.55 1676.63 1064.55C1751.35 1064.55 1788.53 1043.65 1788.53 939.505V906.587C1788.53 802.071 1751.35 781.162 1676.63 781.162Z" fill="#E31E24"/>
<path d="M1984.02 917.836L2039.78 840.009C2042.87 835.369 2045.18 830.33 2045.18 824.15V784.652H2005.7C1997.57 784.652 1989.45 788.521 1985.18 794.331L1933.31 874.468L1881.42 794.331C1877.17 788.521 1869.04 784.652 1860.91 784.652H1821.44V824.15C1821.44 830.33 1823.74 835.369 1826.85 840.009L1882.59 917.836L1819.88 1005.7C1817.17 1010.35 1814.84 1015.38 1814.84 1021.58V1061.07H1854.33C1863.24 1061.07 1870.19 1057.58 1874.84 1051L1933.31 961.965L1991.77 1051C1996.41 1057.58 2003.38 1061.07 2012.28 1061.07H2051.78V1021.58C2051.78 1015.38 2049.45 1010.35 2046.74 1005.7L1984.02 917.836Z" fill="#E31E24"/>
<path d="M1190.86 380.978L1191.39 548.141L1032.57 495.973L873.763 548.141L874.293 380.978L775.607 246.053L907.942 203.515V248.083H982.069V477.094H1048.11C1057.27 477.094 1067.66 476.484 1075.07 469.074C1082.48 461.664 1083.1 451.275 1083.1 442.115V248.083H1125.55C1134.58 248.083 1144.78 247.133 1152.04 240.103C1159.52 232.854 1160.54 222.594 1160.54 213.514V204.585L1289.55 246.053L1190.86 380.978ZM1032.57 59.3605L1101.25 154.517H963.9L1032.57 59.3605ZM1125.55 234.633H1069.66V442.115C1069.66 443.085 1069.64 444.015 1069.62 444.915C1069.54 447.585 1069.36 449.895 1069.01 451.885C1068.89 452.555 1068.75 453.185 1068.6 453.775C1068.3 454.965 1067.91 456.015 1067.43 456.955C1067.19 457.415 1066.94 457.855 1066.64 458.265C1065.99 459.205 1065.2 459.984 1064.27 460.644C1062.87 461.624 1061.14 462.314 1058.99 462.794C1056.14 463.414 1052.56 463.644 1048.11 463.644H995.518V234.633H921.391V188.665C921.391 185.565 921.551 182.886 921.921 180.606C923.031 173.746 926.061 170.326 932.401 168.866C934.511 168.386 936.981 168.116 939.881 168.016C940.851 167.976 941.861 167.966 942.931 167.966H1147.09V213.514C1147.09 214.444 1147.07 215.334 1147.04 216.184C1146.96 218.744 1146.73 220.974 1146.35 222.904C1145.97 224.834 1145.41 226.474 1144.65 227.854C1144.39 228.324 1144.11 228.744 1143.81 229.154C1142.1 231.464 1139.6 232.914 1136.08 233.724C1135.38 233.884 1134.63 234.024 1133.85 234.144C1132.27 234.374 1130.53 234.513 1128.59 234.583C1127.62 234.623 1126.61 234.633 1125.55 234.633ZM1034.24 44.4111C874.533 44.4111 744.599 174.336 744.599 334.039C744.599 423.816 785.657 504.183 849.984 557.351C851.214 557.291 852.464 557.251 853.724 557.251H1218.61C1282.87 504.083 1323.88 423.766 1323.88 334.039C1323.88 174.336 1193.95 44.4111 1034.24 44.4111Z" fill="#FEFEFE"/>
<path d="M924.151 687.996H901.852V665.526H924.151C933.281 665.526 936.091 666.926 936.091 676.576C936.091 686.596 933.281 687.996 924.151 687.996ZM901.852 619.328H922.741C929.971 619.328 932.691 620.478 932.911 628.598C932.911 628.958 932.931 629.308 932.931 629.688C932.931 638.658 930.301 640.238 922.741 640.238H901.852V619.328ZM950.32 651.127C956.12 648.047 960.27 643.467 962.5 637.148C963.7 633.728 964.37 629.808 964.37 625.308C964.37 623.948 964.33 622.648 964.26 621.398C964.15 619.088 963.93 616.938 963.62 614.949C960.5 595.729 947.62 590.889 924.151 590.889H879.193C872.443 590.889 870.583 592.559 870.443 598.939C870.433 599.189 870.413 599.399 870.413 599.669V716.274H924.151C950.84 716.274 967.35 710.125 967.35 680.446C967.35 671.386 965.04 664.366 960.64 659.047C957.96 655.797 954.51 653.177 950.32 651.127Z" fill="#FEFEFE"/>
<path d="M1032.16 689.405C1017.01 689.405 1013.34 688.175 1012.89 666.546C1012.86 664.866 1012.84 663.076 1012.84 661.127V646.197C1012.84 645.697 1012.84 645.207 1012.84 644.717C1012.88 637.498 1013.15 632.198 1013.88 628.318C1014.28 626.158 1014.84 624.428 1015.57 623.058C1018.19 618.138 1023.14 617.758 1032.16 617.758C1041.44 617.758 1046.44 618.138 1049.04 623.308C1049.72 624.638 1050.22 626.308 1050.62 628.358C1051.35 632.278 1051.62 637.638 1051.65 644.967C1051.65 645.387 1051.66 645.787 1051.66 646.197V661.127C1051.66 663.166 1051.63 665.046 1051.59 666.806C1051.12 688.185 1047.41 689.405 1032.16 689.405ZM1081.42 625.088C1081.13 623.308 1080.8 621.598 1080.43 619.988C1074.6 595.059 1058.55 589.309 1032.16 589.309C1006.01 589.309 990.009 594.969 984.059 619.318C983.619 621.098 983.239 622.978 982.919 624.958C982.139 629.688 981.659 635.008 981.489 640.997C981.439 642.677 981.409 644.407 981.409 646.197V661.127C981.409 661.787 981.419 662.406 981.429 663.046C981.889 708.605 998.728 717.844 1032.16 717.844C1065.42 717.844 1082.25 708.695 1082.87 663.696C1082.89 662.837 1082.91 662.006 1082.91 661.127V646.197C1082.91 644.657 1082.9 643.147 1082.86 641.687C1082.7 635.458 1082.22 629.978 1081.42 625.088Z" fill="#FEFEFE"/>
<path d="M1171.59 651.297L1186.63 630.298L1196.89 615.999C1198.29 613.889 1199.34 611.608 1199.34 608.799V590.889H1181.43C1177.74 590.889 1174.05 592.639 1172.13 595.279L1171.31 596.519L1155.48 620.988L1148.59 631.628L1144.53 625.348L1135.58 611.528L1132.36 606.559L1125.06 595.279C1123.13 592.639 1119.44 590.889 1115.75 590.889H1097.84V608.799C1097.84 611.608 1098.89 613.889 1100.3 615.999L1100.34 616.068L1103.72 620.768L1114.01 635.138L1125.58 651.297L1122.72 655.297L1097.14 691.155C1095.9 693.265 1094.85 695.545 1094.85 698.355V716.274H1112.77C1116.8 716.274 1119.96 714.695 1122.07 711.705L1148.59 671.316L1175.11 711.705C1177.21 714.695 1180.38 716.274 1184.41 716.274H1202.33V698.355C1202.33 695.545 1201.28 693.265 1200.04 691.155L1171.59 651.297Z" fill="#FEFEFE"/>
<path d="M924.151 665.526H901.852V687.996H924.151C933.281 687.996 936.091 686.596 936.091 676.576C936.091 666.926 933.281 665.526 924.151 665.526Z" fill="#2B2A29"/>
<path d="M1202.33 716.274H1184.41C1180.38 716.274 1177.21 714.694 1175.11 711.705L1148.59 671.316L1122.07 711.705C1119.96 714.694 1116.8 716.274 1112.77 716.274H1094.85V698.355C1094.85 695.545 1095.9 693.265 1097.14 691.155L1122.72 655.297L1125.58 651.297L1114.01 635.138L1103.72 620.768L1100.34 616.068L1100.3 615.998C1098.89 613.888 1097.84 611.608 1097.84 608.798V590.889H1115.75C1119.44 590.889 1123.13 592.639 1125.06 595.279L1132.36 606.559L1135.58 611.528L1144.53 625.348L1148.59 631.628L1155.48 620.988L1171.31 596.519L1172.13 595.279C1174.05 592.639 1177.74 590.889 1181.43 590.889H1199.34V608.798C1199.34 611.608 1198.29 613.888 1196.89 615.998L1186.63 630.298L1171.59 651.297L1200.04 691.155C1201.28 693.265 1202.33 695.545 1202.33 698.355V716.274ZM1032.16 717.844C998.728 717.844 981.889 708.604 981.429 663.046C981.419 662.406 981.409 661.786 981.409 661.126V646.197C981.409 644.407 981.439 642.677 981.489 640.997C981.659 635.008 982.139 629.688 982.919 624.958C983.239 622.978 983.619 621.098 984.059 619.318C990.009 594.969 1006.01 589.309 1032.16 589.309C1058.55 589.309 1074.6 595.059 1080.43 619.988C1080.8 621.598 1081.13 623.308 1081.42 625.088C1082.22 629.978 1082.7 635.458 1082.86 641.687C1082.9 643.147 1082.91 644.657 1082.91 646.197V661.126C1082.91 662.006 1082.9 662.836 1082.88 663.696C1082.26 708.695 1065.42 717.844 1032.16 717.844ZM924.151 716.274H870.414V599.669C870.414 599.399 870.434 599.189 870.444 598.939C870.584 592.559 872.443 590.889 879.193 590.889H924.151C947.62 590.889 960.5 595.729 963.62 614.948C963.93 616.938 964.15 619.088 964.26 621.398C964.33 622.648 964.37 623.948 964.37 625.308C964.37 629.808 963.7 633.728 962.5 637.147C960.27 643.467 956.12 648.047 950.32 651.127C954.51 653.177 957.96 655.797 960.64 659.046C965.04 664.366 967.35 671.386 967.35 680.446C967.35 710.125 950.84 716.274 924.151 716.274ZM849.984 557.351C785.657 504.183 744.599 423.816 744.599 334.039C744.599 174.336 874.533 44.4111 1034.24 44.4111C1193.95 44.4111 1323.88 174.336 1323.88 334.039C1323.88 423.766 1282.87 504.083 1218.61 557.251H853.724C852.464 557.251 851.214 557.291 849.984 557.351ZM1265.03 574.14C1328.13 513.482 1367.44 428.276 1367.44 334.039C1367.44 150.317 1217.96 0.842773 1034.24 0.842773C850.504 0.842773 701.03 150.317 701.03 334.039C701.03 429.236 741.159 515.222 805.386 575.99C790.857 589.199 781.687 608.219 781.687 629.288V684.076C781.687 723.694 814.106 756.113 853.724 756.113H1218.83C1258.45 756.113 1290.87 723.694 1290.87 684.076V629.288C1290.87 607.209 1280.8 587.379 1265.03 574.14Z" fill="#2B2A29"/>
<path d="M922.741 640.237C930.301 640.237 932.931 638.657 932.931 629.688C932.931 629.308 932.911 628.958 932.911 628.598C932.691 620.478 929.971 619.328 922.741 619.328H901.852V640.237H922.741Z" fill="#2B2A29"/>
<path d="M1050.62 628.358C1050.22 626.308 1049.72 624.638 1049.04 623.308C1046.44 618.138 1041.44 617.759 1032.16 617.759C1023.14 617.759 1018.19 618.138 1015.57 623.058C1014.84 624.428 1014.28 626.158 1013.88 628.318C1013.15 632.198 1012.88 637.498 1012.84 644.717C1012.84 645.207 1012.84 645.697 1012.84 646.197V661.127C1012.84 663.077 1012.86 664.866 1012.89 666.546C1013.34 688.176 1017.01 689.406 1032.16 689.406C1047.41 689.406 1051.12 688.186 1051.59 666.806C1051.63 665.046 1051.66 663.167 1051.66 661.127V646.197C1051.66 645.787 1051.65 645.387 1051.65 644.967C1051.62 637.638 1051.35 632.278 1050.62 628.358Z" fill="#2B2A29"/>
<path d="M954.19 167.966H942.931C941.861 167.966 940.851 167.976 939.881 168.016C936.981 168.116 934.511 168.386 932.401 168.866C926.061 170.326 923.031 173.746 921.921 180.606C921.552 182.886 921.391 185.566 921.391 188.665V234.634H995.519V463.644H1048.11C1052.56 463.644 1056.14 463.414 1058.99 462.794C1061.14 462.314 1062.87 461.625 1064.27 460.645C1065.2 459.985 1065.99 459.205 1066.64 458.265C1066.94 457.855 1067.19 457.415 1067.43 456.955C1067.91 456.015 1068.3 454.965 1068.6 453.775C1068.75 453.185 1068.89 452.555 1069.01 451.885C1069.36 449.895 1069.54 447.585 1069.62 444.915C1069.64 444.015 1069.66 443.085 1069.66 442.115V234.634H1125.55C1126.61 234.634 1127.62 234.624 1128.59 234.584C1130.53 234.514 1132.27 234.374 1133.85 234.144C1134.63 234.024 1135.38 233.884 1136.08 233.724C1139.6 232.914 1142.1 231.464 1143.81 229.154C1144.11 228.744 1144.39 228.324 1144.65 227.854C1145.41 226.474 1145.97 224.834 1146.35 222.904C1146.73 220.974 1146.96 218.744 1147.04 216.184C1147.07 215.334 1147.09 214.444 1147.09 213.515V167.966H954.19Z" fill="#2B2A29"/>
<path d="M718.27 496.803C698.34 453.575 687.741 407.897 683.841 360.719C681.511 332.54 682.381 304.271 686.181 276.102C690.521 243.863 699.68 213.254 714.99 184.545C720.899 173.466 727.989 162.966 733.269 151.607C740.389 136.287 735.029 126.838 718.64 123.768C716.18 123.308 713.59 123.478 711.06 123.478C478.329 123.478 245.608 123.478 12.8877 123.478C11.2778 123.478 9.64787 123.358 8.04794 123.498C2.36816 123.998 -1.05169 128.918 1.11822 134.208C2.37817 137.297 4.17811 140.797 6.78801 142.607C19.9375 151.687 32.6469 161.907 46.9464 168.736C88.2947 188.495 133.113 194.105 178.211 196.415C211.53 198.105 244.958 197.835 278.347 197.885C388.263 198.045 498.168 197.945 608.084 197.945C612.454 197.945 616.834 197.815 621.203 198.045C627.373 198.355 630.953 201.715 631.193 207.965C631.343 211.854 631.303 215.804 630.743 219.634C627.783 239.993 623.183 260.223 621.833 280.672C618.984 324.18 622.593 367.298 635.663 409.187C644.662 438.055 655.782 465.734 680.161 485.823C691.521 495.193 704.13 500.533 719.87 500.933C719.08 498.863 718.74 497.813 718.27 496.803Z" fill="#2B2A29"/>
<path d="M231.589 288.551C275.077 289.911 318.636 289.082 362.164 289.182C367.124 289.202 372.073 289.192 377.033 289.192C377.103 288.872 377.163 288.552 377.233 288.222C376.093 287.712 374.973 287.132 373.793 286.682C357.844 280.632 341.625 275.182 326.015 268.332C316.456 264.132 307.626 258.113 298.856 252.323C286.687 244.283 280.417 232.944 282.577 217.804C280.567 217.684 279.437 217.574 278.317 217.574C201.62 217.564 124.913 217.564 48.2163 217.564C46.8364 217.564 45.4264 217.494 44.0865 217.764C37.7467 219.054 34.9568 223.704 38.0067 229.374C40.2066 233.474 43.4265 237.344 47.0064 240.343C75.4652 264.102 109.584 275.152 145.262 280.662C173.781 285.062 202.75 287.661 231.589 288.551Z" fill="#ED721D"/>
<path d="M401.202 379.568C407.722 379.578 414.242 379.568 420.761 379.568C420.271 378.268 419.731 378.028 419.161 377.848C417.651 377.368 416.121 376.938 414.612 376.438C390.673 368.658 367.333 359.599 346.604 344.839C334.535 336.25 325.615 326.15 328.555 309.031C326.115 308.911 324.555 308.781 322.995 308.781C269.797 308.771 216.609 308.771 163.422 308.771C140.862 308.771 118.303 308.611 95.7543 308.951C92.5944 309.001 88.0546 310.771 86.7447 313.171C85.4047 315.61 86.8346 319.93 87.8546 323.19C88.4846 325.21 90.2645 327.27 92.0744 328.49C103.834 336.35 115.094 345.349 127.733 351.449C170.381 372.008 216.519 377.658 263.058 378.978C309.076 380.278 355.154 379.458 401.202 379.568Z" fill="#ED721D"/>
<path d="M445.721 431.846C435.851 424.106 429.951 414.136 432.971 400.037C430.161 400.037 427.881 400.037 425.591 400.037C350.924 400.037 276.267 399.977 201.61 400.207C197.97 400.207 191.881 401.997 191.271 404.177C190.251 407.837 192.401 412.586 193.841 416.646C194.461 418.416 196.54 419.746 198.13 421.066C212.17 432.746 227.759 441.835 244.829 448.315C286.467 464.144 330.045 469.494 374.123 470.294C422.731 471.194 471.359 470.504 519.978 470.504C522.107 470.504 524.227 470.504 526.357 470.504C524.477 469.004 522.587 468.374 520.678 467.794C493.869 459.614 468 449.335 445.721 431.846Z" fill="#ED721D"/>
<path d="M2063.82 123.498C2062.22 123.358 2060.6 123.478 2058.98 123.478C1826.26 123.478 1593.53 123.478 1360.8 123.478C1358.28 123.478 1355.69 123.308 1353.23 123.768C1336.84 126.838 1331.49 136.287 1338.6 151.607C1343.87 162.966 1350.97 173.466 1356.87 184.545C1372.18 213.254 1381.34 243.863 1385.69 276.102C1389.49 304.271 1390.35 332.54 1388.03 360.719C1384.13 407.897 1373.52 453.575 1353.59 496.803C1353.13 497.813 1352.79 498.863 1352 500.933C1367.74 500.533 1380.33 495.193 1391.71 485.823C1416.09 465.734 1427.2 438.055 1436.21 409.187C1449.28 367.298 1452.89 324.18 1450.03 280.672C1448.69 260.223 1444.08 239.993 1441.13 219.634C1440.57 215.804 1440.53 211.854 1440.68 207.965C1440.92 201.715 1444.49 198.355 1450.67 198.045C1455.04 197.815 1459.42 197.945 1463.79 197.945C1573.71 197.945 1683.6 198.045 1793.52 197.885C1826.9 197.835 1860.33 198.105 1893.65 196.415C1938.75 194.105 1983.58 188.495 2024.93 168.736C2039.22 161.907 2051.94 151.687 2065.09 142.607C2067.7 140.797 2069.5 137.297 2070.76 134.208C2072.92 128.918 2069.51 123.998 2063.82 123.498Z" fill="#2B2A29"/>
<path d="M2027.79 217.764C2026.45 217.494 2025.03 217.564 2023.66 217.564C1946.96 217.564 1870.25 217.564 1793.56 217.574C1792.43 217.574 1791.31 217.684 1789.3 217.804C1791.46 232.944 1785.18 244.283 1773.01 252.323C1764.24 258.113 1755.41 264.132 1745.86 268.332C1730.25 275.182 1714.03 280.632 1698.07 286.682C1696.9 287.132 1695.77 287.712 1694.64 288.222C1694.69 288.552 1694.77 288.872 1694.84 289.192C1699.79 289.192 1704.75 289.202 1709.71 289.182C1753.23 289.082 1796.79 289.911 1840.28 288.551C1869.12 287.661 1898.08 285.062 1926.6 280.662C1962.28 275.152 1996.39 264.102 2024.86 240.343C2028.45 237.344 2031.65 233.474 2033.87 229.374C2036.92 223.704 2034.13 219.054 2027.79 217.764Z" fill="#ED721D"/>
<path d="M1976.12 308.951C1953.56 308.611 1931 308.771 1908.44 308.771C1855.25 308.771 1802.06 308.771 1748.87 308.781C1747.32 308.781 1745.75 308.911 1743.32 309.031C1746.26 326.15 1737.33 336.25 1725.26 344.839C1704.54 359.599 1681.2 368.658 1657.25 376.438C1655.75 376.938 1654.22 377.368 1652.71 377.848C1652.14 378.028 1651.59 378.268 1651.11 379.568C1657.63 379.568 1664.14 379.578 1670.67 379.568C1716.72 379.458 1762.79 380.278 1808.81 378.978C1855.35 377.658 1901.48 372.008 1944.13 351.449C1956.78 345.349 1968.03 336.35 1979.79 328.49C1981.61 327.27 1983.38 325.21 1984.01 323.19C1985.03 319.93 1986.47 315.61 1985.12 313.171C1983.81 310.771 1979.27 309.001 1976.12 308.951Z" fill="#ED721D"/>
<path d="M1870.26 400.207C1795.61 399.977 1720.94 400.037 1646.28 400.037C1643.99 400.037 1641.71 400.037 1638.9 400.037C1641.92 414.136 1636.01 424.106 1626.15 431.846C1603.86 449.335 1578.01 459.614 1551.19 467.794C1549.29 468.374 1547.39 469.004 1545.52 470.504C1547.64 470.504 1549.76 470.504 1551.89 470.504C1600.5 470.504 1649.14 471.194 1697.75 470.294C1741.83 469.494 1785.4 464.144 1827.05 448.315C1844.1 441.835 1859.7 432.746 1873.75 421.066C1875.32 419.746 1877.41 418.416 1878.03 416.646C1879.47 412.586 1881.61 407.837 1880.59 404.177C1879.98 401.997 1873.89 400.207 1870.26 400.207Z" fill="#ED721D"/>
<path d="M1032.57 59.3606L963.9 154.517H1101.25L1032.57 59.3606Z" fill="#E31E24"/>
<path d="M873.763 548.141L1032.57 495.973L1191.39 548.141L1190.86 380.978L1289.55 246.053L1160.54 204.585V213.514C1160.54 222.594 1159.52 232.854 1152.04 240.103C1144.78 247.133 1134.58 248.083 1125.55 248.083H1083.1V442.115C1083.1 451.275 1082.48 461.664 1075.07 469.074C1067.66 476.484 1057.27 477.094 1048.11 477.094H982.069V248.083H907.942V203.515L775.607 246.053L874.293 380.978L873.763 548.141Z" fill="#E31E24"/>
<path d="M1146.35 222.904C1146.73 220.974 1146.96 218.744 1147.04 216.184C1146.96 218.744 1146.73 220.974 1146.35 222.904Z" fill="#E31E24"/>
<path d="M595.204 289.181C597.684 289.201 600.144 289.181 602.124 289.181C605.244 265.002 608.244 241.703 611.334 217.754C609.744 217.674 608.624 217.564 607.494 217.564C506.788 217.564 406.092 217.514 305.386 217.764C301.876 217.774 296.946 219.874 295.296 222.584C293.876 224.934 295.736 229.714 297.026 233.084C297.856 235.273 299.986 237.283 302.016 238.683C311.416 245.183 320.495 252.353 330.565 257.633C371.813 279.312 416.982 285.561 462.54 287.601C506.698 289.591 550.986 288.771 595.204 289.181Z" fill="#E31E24"/>
<path d="M514.418 379.008C543.387 380.298 572.445 379.438 601.464 379.528C603.924 379.538 606.384 379.528 608.264 379.528C606.074 355.639 603.964 332.65 601.764 308.771C599.974 308.771 598.144 308.771 596.324 308.771C514.548 308.771 432.781 308.771 351.014 308.771C350.094 308.771 349.164 308.71 348.254 308.78C340.885 309.36 337.665 314.53 340.905 321.16C342.285 323.97 344.125 327.08 346.634 328.75C359.194 337.1 371.363 346.449 384.913 352.799C425.821 371.948 469.979 377.038 514.418 379.008Z" fill="#E31E24"/>
<path d="M453.38 400.067C445.051 400.077 441.581 405.707 445.81 412.876C448.08 416.726 451.47 420.126 454.95 423.016C476.749 441.065 502.298 451.725 529.517 457.755C551.966 462.714 574.855 466.144 597.734 468.714C611.954 470.294 626.493 469.004 639.223 469.004C630.743 447.175 621.723 423.956 612.434 400.037C559.766 400.037 506.568 400.007 453.38 400.067Z" fill="#E31E24"/>
<path d="M1776.56 222.584C1774.92 219.874 1769.99 217.774 1766.48 217.764C1665.78 217.514 1565.09 217.564 1464.38 217.564C1463.25 217.564 1462.12 217.674 1460.53 217.754C1463.62 241.703 1466.62 265.002 1469.74 289.181C1471.73 289.181 1474.19 289.201 1476.65 289.181C1520.89 288.771 1565.17 289.591 1609.33 287.601C1654.88 285.561 1700.05 279.312 1741.31 257.633C1751.37 252.353 1760.46 245.183 1769.86 238.683C1771.88 237.283 1774.01 235.273 1774.85 233.084C1776.13 229.714 1777.99 224.934 1776.56 222.584Z" fill="#E31E24"/>
<path d="M1723.62 308.78C1722.7 308.71 1721.78 308.771 1720.85 308.771C1639.08 308.771 1557.33 308.771 1475.54 308.771C1473.72 308.771 1471.89 308.771 1470.1 308.771C1467.91 332.65 1465.8 355.639 1463.6 379.528C1465.48 379.528 1467.94 379.538 1470.4 379.528C1499.42 379.438 1528.49 380.298 1557.45 379.008C1601.89 377.038 1646.05 371.948 1686.95 352.799C1700.5 346.449 1712.68 337.1 1725.23 328.75C1727.74 327.08 1729.58 323.97 1730.96 321.16C1734.21 314.53 1730.98 309.36 1723.62 308.78Z" fill="#E31E24"/>
<path d="M1474.13 468.714C1497.02 466.144 1519.9 462.714 1542.36 457.755C1569.58 451.725 1595.11 441.065 1616.91 423.016C1620.4 420.126 1623.79 416.726 1626.05 412.876C1630.28 405.707 1626.82 400.077 1618.49 400.067C1565.3 400.007 1512.11 400.037 1459.44 400.037C1450.15 423.956 1441.13 447.175 1432.64 469.004C1445.37 469.004 1459.92 470.294 1474.13 468.714Z" fill="#E31E24"/>
</svg>
